<svg width="22" height="29" viewBox="0 0 22 29" fill="none" xmlns="http://www.w3.org/2000/svg">
<g clip-path="url(#clip0_93_250)">
<path d="M2.33398 28.1803C1.80065 28.1803 1.33398 27.9803 0.933984 27.5803C0.533984 27.1803 0.333984 26.7137 0.333984 26.1803V8.847C0.333984 8.31367 0.533984 7.847 0.933984 7.447C1.33398 7.047 1.80065 6.847 2.33398 6.847H6.00065V6.51367C6.00065 5.11367 6.48398 3.93034 7.45065 2.96367C8.41732 1.997 9.60065 1.51367 11.0007 1.51367C12.4007 1.51367 13.584 1.997 14.5507 2.96367C15.5173 3.93034 16.0007 5.11367 16.0007 6.51367V6.847H19.6673C20.2007 6.847 20.6673 7.047 21.0673 7.447C21.4673 7.847 21.6673 8.31367 21.6673 8.847V26.1803C21.6673 26.7137 21.4673 27.1803 21.0673 27.5803C20.6673 27.9803 20.2007 28.1803 19.6673 28.1803H2.33398ZM2.33398 26.1803H19.6673V8.847H16.0007V11.847C16.0007 12.1359 15.9062 12.3748 15.7173 12.5637C15.5284 12.7526 15.2895 12.847 15.0007 12.847C14.7118 12.847 14.4729 12.7526 14.284 12.5637C14.0951 12.3748 14.0007 12.1359 14.0007 11.847V8.847H8.00065V11.847C8.00065 12.1359 7.90621 12.3748 7.71732 12.5637C7.52843 12.7526 7.28954 12.847 7.00065 12.847C6.71176 12.847 6.47287 12.7526 6.28398 12.5637C6.0951 12.3748 6.00065 12.1359 6.00065 11.847V8.847H2.33398V26.1803ZM8.00065 6.847H14.0007V6.51367C14.0007 5.66922 13.7118 4.95811 13.134 4.38034C12.5562 3.80256 11.8451 3.51367 11.0007 3.51367C10.1562 3.51367 9.4451 3.80256 8.86732 4.38034C8.28954 4.95811 8.00065 5.66922 8.00065 6.51367V6.847Z" fill="black"/>
</g>
<defs>
<clipPath id="clip0_93_250">
<rect width="22" height="28" fill="white" transform="translate(0 0.845703)"/>
</clipPath>
</defs>
</svg>
